<?xml version="1.0" encoding="UTF-8"?>
<!-- Generated by Pixelmator Pro 4.0 -->
<svg width="2016" height="2116" viewBox="0 0 2016 2116" xmlns="http://www.w3.org/2000/svg">
    <path id="Shape" fill="#F5402E" fill-rule="evenodd" stroke="none" d="M 1621.5 560.894775 C 1625.900024 560.924194 1633.95166 560.515503 1639.392578 559.98645 C 1644.833496 559.457397 1652.708496 558.077148 1656.892578 556.919189 C 1661.07666 555.761353 1668.630005 552.806763 1673.677734 550.353516 C 1678.725464 547.900269 1685.475464 544.182861 1688.677734 542.092529 C 1691.880005 540.002197 1698.40271 534.618164 1703.172729 530.128052 C 1708.676025 524.947754 1714.251465 518.361572 1718.429321 512.105835 C 1722.050537 506.683594 1726.305054 499.37915 1727.883911 495.873657 C 1729.462769 492.368164 1731.891235 485.675049 1733.28064 481 C 1734.669922 476.324951 1736.300171 469.772949 1736.90332 466.439819 C 1737.50647 463.106689 1738 454.943726 1738 448.299927 C 1738 440.17041 1737.360596 433.159302 1736.0448 426.860107 C 1734.96936 421.712036 1732.666138 413.449951 1730.926636 408.5 C 1729.187012 403.550049 1726.703979 397.401489 1725.408813 394.836548 C 1724.113647 392.271729 1720.941284 387.09668 1718.359131 383.336548 C 1715.776978 379.576416 1709.116699 372 1703.558594 366.5 C 1695.14856 358.177979 1691.644897 355.521729 1682.677612 350.670044 C 1676.751099 347.463623 1668.21167 343.601807 1663.701172 342.088257 C 1659.190552 340.574707 1652.140259 338.473267 1648.033936 337.418213 C 1642.349365 335.957764 1637.099731 335.5 1626.033936 335.5 C 1612.939819 335.5 1610.212402 335.82373 1598.502808 338.76709 C 1590.613403 340.750244 1582.244141 343.649902 1577.206787 346.145264 C 1572.642456 348.40625 1564.54126 353.538208 1559.203979 357.549438 C 1553.866821 361.560791 1546.349976 368.282593 1542.5 372.486938 C 1538.650024 376.691284 1532.947144 384.16394 1529.827026 389.093018 C 1526.707031 394.021973 1522.833008 401.529907 1521.218262 405.777344 C 1519.603638 410.02478 1517.318848 418.314209 1516.141235 424.19812 C 1514.594727 431.925049 1514.000854 438.590576 1514.003174 448.19812 C 1514.005005 455.567383 1514.67981 465.349609 1515.516235 470.13147 C 1516.34668 474.878784 1517.931885 481.403809 1519.038818 484.63147 C 1520.145752 487.859131 1522.842773 494.099976 1525.032349 498.5 C 1527.221924 502.900024 1531.878052 510.324951 1535.379272 515 C 1538.880615 519.675049 1544.86731 526.425049 1548.68335 530 C 1552.499268 533.574951 1557.760498 538.160645 1560.374878 540.190308 C 1562.98938 542.219971 1569.606934 546.180908 1575.080444 548.992554 C 1580.554077 551.804077 1588.548096 554.99353 1592.845093 556.080078 C 1597.141968 557.166748 1603.547119 558.682373 1607.078857 559.448364 C 1610.610474 560.214355 1617.099976 560.865234 1621.5 560.894775 Z M 1442.636719 1149.897705 C 1454.641235 1149.984619 1457.977295 1149.651367 1464.755005 1147.688232 C 1469.144775 1146.416748 1476.283325 1143.393921 1480.618286 1140.970825 C 1486.215088 1137.842407 1491.304077 1133.752075 1498.172729 1126.861084 C 1504.790405 1120.221924 1509.124512 1114.842407 1511.895508 1109.828491 C 1514.331909 1105.4198 1516.753174 1099.064209 1517.972778 1093.876221 C 1519.463379 1087.535034 1520 1081.808105 1520 1072.239502 C 1520 1061.609985 1519.576538 1057.764771 1517.688232 1051.245117 C 1516.416748 1046.855225 1513.394775 1039.716797 1510.972656 1035.381836 C 1507.848877 1029.791016 1503.907837 1024.884033 1497.414063 1018.5 C 1490.100952 1011.310547 1486.088501 1008.320068 1477.468384 1003.634277 C 1466.74939 997.807617 1466.602173 997.762573 1455.360352 996.864258 C 1448.425415 996.310059 1440.144775 996.32666 1433.975708 996.907227 C 1426.121338 997.64624 1422.445313 998.539063 1417.253174 1000.96875 C 1413.592896 1002.681641 1406.976074 1006.506348 1402.549072 1009.468262 C 1398.12207 1012.430176 1391.94165 1017.474121 1388.814819 1020.676758 C 1385.687988 1023.879639 1381.314453 1029.506348 1379.095947 1033.180664 C 1376.877441 1036.85498 1373.812012 1043.486572 1372.283936 1047.91748 C 1369.69104 1055.436035 1369.505493 1057.058594 1369.502808 1072.236816 C 1369.500366 1086.471191 1369.801514 1089.541504 1371.917114 1096.848755 C 1373.725708 1103.095947 1376.023071 1107.75293 1381.043701 1115.348755 C 1385.185669 1121.615479 1390.078369 1127.519531 1393.829468 1130.777588 C 1397.171265 1133.680298 1402.73938 1137.664795 1406.202759 1139.631958 C 1409.66626 1141.599121 1414.667847 1144.349854 1417.317505 1145.744385 C 1419.967163 1147.13916 1423.567139 1148.621094 1425.317505 1149.03772 C 1427.067871 1149.454346 1434.861572 1149.841309 1442.636719 1149.897705 Z M 1019 1186.130615 C 1022.025024 1185.885498 1030.349976 1184.175049 1037.5 1182.329346 C 1044.650024 1180.483887 1053.650024 1177.473389 1057.5 1175.639404 C 1061.349976 1173.805542 1069.224976 1168.803589 1075 1164.523926 C 1080.775024 1160.244263 1087.75061 1154.438232 1090.501343 1151.621338 C 1093.252197 1148.804688 1099.03772 1141.2229 1103.358276 1134.772949 C 1107.678955 1128.323242 1112.297974 1120.362061 1113.623047 1117.081543 C 1114.94812 1113.801025 1117.160034 1106.253174 1118.538452 1100.308594 C 1119.91687 1094.36377 1121.324585 1084.709717 1121.666626 1078.854858 C 1122.027832 1072.671387 1121.805176 1064.440674 1121.135254 1059.216919 C 1120.500977 1054.270874 1118.381348 1045.336182 1116.424927 1039.362061 C 1114.468506 1033.387939 1111.618408 1025.800049 1110.091431 1022.5 C 1108.564331 1019.199951 1104.585571 1012.887207 1101.249756 1008.471436 C 1097.913818 1004.055664 1092.240601 997.262939 1088.642334 993.376709 C 1085.044189 989.490234 1078.151855 983.656128 1073.32605 980.411865 C 1068.500122 977.167603 1060.862915 972.661865 1056.354248 970.399048 C 1051.845581 968.13623 1044.408936 965.348755 1039.828369 964.204712 C 1035.247803 963.060547 1027.449951 961.588135 1022.5 960.932617 C 1017.480469 960.267944 1009.740662 960.00708 1005 960.342773 C 1000.325012 960.67395 992.797852 961.647705 988.272949 962.506592 C 983.748047 963.365479 976.600891 965.192871 972.39032 966.567383 C 968.179688 967.941895 960.419373 971.638916 955.145081 974.783203 C 949.870789 977.92749 943.031433 982.355713 939.946472 984.623779 C 936.861572 986.891724 929.779724 994.059326 924.209106 1000.551514 C 917.736877 1008.094727 912.821594 1014.937988 910.592651 1019.508911 C 908.674255 1023.443115 905.168579 1032.475586 902.802307 1039.581055 C 898.5 1052.5 898.5 1052.5 898.5 1071.042725 C 898.5 1088.108765 898.731628 1090.537476 901.40863 1101.542725 C 903.137085 1108.648682 905.788269 1116.340088 907.942993 1120.5 C 909.937195 1124.349976 913.611816 1130.650024 916.108765 1134.5 C 918.605713 1138.349976 922.899597 1144.068237 925.650757 1147.207153 C 928.401855 1150.346191 933.993347 1155.714111 938.076355 1159.135864 C 942.159363 1162.557617 948.553345 1167.333984 952.285278 1169.75 C 956.017151 1172.165771 962.317139 1175.483154 966.285278 1177.121582 C 970.253357 1178.760254 977.549988 1181.285645 982.5 1182.733887 C 988.572388 1184.510376 995.078186 1185.563477 1002.5 1185.971436 C 1008.549988 1186.304077 1015.974976 1186.375732 1019 1186.130615 Z M 1013 1851.616943 C 1025.51062 1851.321167 1028.66626 1850.896729 1036 1848.523438 C 1040.675049 1847.010498 1047.425049 1844.632568 1051 1843.238892 C 1054.574951 1841.845337 1061.112061 1838.334717 1065.526611 1835.437622 C 1069.941284 1832.540527 1077.089355 1826.657104 1081.411011 1822.363281 C 1085.732788 1818.069458 1091.501953 1811.618652 1094.231323 1808.028198 C 1096.960693 1804.437622 1100.723755 1798.476563 1102.59375 1794.78125 C 1104.463745 1791.085938 1107.071655 1785.19873 1108.38916 1781.698364 C 1109.706665 1778.19812 1111.508057 1771.835815 1112.392334 1767.560181 C 1113.336304 1762.995605 1113.996826 1754.979126 1113.992432 1748.143066 C 1113.988281 1741.73938 1113.515991 1733.610352 1112.942993 1730.078613 C 1112.369995 1726.546753 1110.335327 1718.813599 1108.421631 1712.893921 C 1105.846313 1704.927856 1103.35437 1699.709717 1098.833008 1692.815308 C 1095.473022 1687.691895 1090.474976 1681.025024 1087.726318 1678 C 1084.977661 1674.974976 1079.873169 1670.025024 1076.383057 1667 C 1072.892944 1663.974976 1066.394775 1659.285889 1061.942627 1656.579712 C 1057.490601 1653.873535 1050.169678 1650.344482 1045.67395 1648.737305 C 1041.178345 1647.130127 1033.293945 1644.956787 1028.15332 1643.907593 C 1022.859802 1642.827271 1014.721313 1642 1009.385864 1642 C 1003.62854 1642 996.18042 1642.809082 990.232544 1644.080688 C 984.879639 1645.224976 976.450012 1647.757446 971.5 1649.708374 C 966.549988 1651.659302 958.890259 1655.595947 954.478271 1658.456543 C 950.066345 1661.317139 942.912415 1666.748535 938.580688 1670.526489 C 934.248901 1674.304443 928.816162 1679.960938 926.507874 1683.096558 C 924.199585 1686.232178 920.450989 1692.555664 918.177673 1697.148804 C 915.904297 1701.741943 912.874207 1708.875 911.444031 1713 C 910.013855 1717.125 908.219604 1723.875 907.456726 1728 C 906.693909 1732.125 906.069763 1741.125 906.069763 1748 C 906.069763 1754.875 906.68457 1763.875 907.435974 1768 C 908.187378 1772.125 910.649048 1780 912.906372 1785.5 C 915.163635 1791 919.548645 1799.208252 922.650818 1803.740479 C 925.752991 1808.272705 930.776306 1814.727051 933.813721 1818.083496 C 936.851135 1821.439941 942.380554 1826.748657 946.101318 1829.880615 C 949.822144 1833.012695 956.833984 1837.666626 961.683228 1840.2229 C 966.532471 1842.779175 974.001221 1845.830811 978.280518 1847.004395 C 982.559814 1848.177856 988.859863 1849.772949 992.280518 1850.54895 C 996.574341 1851.523071 1002.989441 1851.85376 1013 1851.616943 Z M 1007 1935.891602 C 1003.424988 1935.840698 998.90625 1935.420776 996.958374 1934.958496 C 995.010498 1934.496094 986.685486 1933.386108 978.458374 1932.491821 C 970.231262 1931.597534 957.200012 1929.779053 949.5 1928.450684 C 941.799988 1927.122314 927.625 1924.482178 918 1922.58374 C 908.375 1920.685181 888.799988 1916.169189 874.5 1912.547974 C 860.200012 1908.92688 839.950012 1903.453857 829.5 1900.385742 C 819.049988 1897.317749 802.174988 1891.762817 792 1888.041504 C 781.825012 1884.320313 764.275024 1878.002441 753 1874.001953 C 741.724976 1870.001343 725.075012 1863.458618 716 1859.462402 C 706.924988 1855.466309 693.200012 1849.29541 685.5 1845.749512 C 677.799988 1842.203613 664.75 1835.830566 656.5 1831.58728 C 648.25 1827.343994 638.125 1821.891968 634 1819.47168 C 629.875 1817.051392 624.25 1813.975586 621.5 1812.636475 C 618.75 1811.297363 614.700012 1808.893677 612.5 1807.295044 C 610.299988 1805.696289 606.025024 1803.021362 603 1801.350708 C 599.974976 1799.680054 595.014771 1796.780273 591.977295 1794.906616 C 588.939819 1793.032959 583.764771 1789.735107 580.477295 1787.577881 C 577.189758 1785.420776 572.426697 1781.94519 569.8927 1779.854248 C 567.358704 1777.763428 562.416626 1774.431152 558.910339 1772.449341 C 555.404053 1770.467407 550.277344 1766.950806 547.517639 1764.634644 C 544.757935 1762.318481 536.424988 1755.82666 529 1750.208374 C 521.575012 1744.590088 513.140991 1738.082275 510.257751 1735.746582 C 507.374512 1733.411011 500.399506 1727.707153 494.757751 1723.071411 C 489.115997 1718.435669 477.622101 1708.310669 469.215759 1700.571411 C 460.809448 1692.832153 451.527771 1684.474976 448.589874 1682 C 445.651947 1679.525024 439.414551 1673.449951 434.728943 1668.5 C 430.043365 1663.550049 422.000031 1654.724365 416.854858 1648.887329 C 411.709686 1643.050415 404.799988 1635.037354 401.5 1631.080688 C 398.200012 1627.123901 391.727692 1619.524536 387.117096 1614.193237 C 382.5065 1608.861938 377.66217 1602.925049 376.351898 1601 C 375.041626 1599.074951 372.063934 1594.904907 369.734802 1591.733154 C 367.40567 1588.561401 361.184601 1580.011353 355.910217 1572.733154 C 350.635834 1565.454956 343.956635 1555.675049 341.067566 1551 C 338.178497 1546.324951 334.102539 1540.025024 332.009888 1537 C 329.917236 1533.974976 323.657227 1523.552124 318.098785 1513.838013 C 312.540314 1504.123901 303.351624 1486.978638 297.679413 1475.737305 C 292.007233 1464.495972 284.608917 1448.818848 281.238739 1440.899292 C 277.86853 1432.979614 272.224091 1419.525024 268.695526 1411 C 265.166992 1402.474976 258.364563 1384.503296 253.579071 1371.062988 C 248.793564 1357.622559 242.394958 1338.047607 239.35994 1327.562988 C 236.324921 1317.078369 232.332825 1301.974976 230.488617 1294 C 228.644409 1286.025024 225.314865 1270.275024 223.08963 1259 C 220.864395 1247.724976 217.677521 1230.343506 216.00769 1220.374512 C 214.33786 1210.405518 212.07753 1194.430542 210.984741 1184.874512 C 209.891953 1175.318604 208.547455 1158.275024 207.996964 1147 C 207.446472 1135.724976 207.018463 1113.675049 207.045837 1098 C 207.073212 1082.324951 207.527924 1062.412598 208.056305 1053.750244 C 208.584686 1045.088013 209.498047 1031.137939 210.085983 1022.750244 C 210.67392 1014.362671 212.233963 1000.074951 213.552734 991 C 214.87149 981.925049 216.668365 969.775024 217.545776 964 C 218.423187 958.224976 220.449249 946.974976 222.048141 939 C 223.647034 931.025024 225.633011 921.349976 226.461426 917.5 C 227.289856 913.650024 228.461212 908.474976 229.064453 906 C 229.667694 903.525024 231.067383 897.900024 232.174866 893.5 C 233.282349 889.099976 235.499069 881.113403 237.100906 875.751953 C 238.702759 870.390503 241.631058 860.94043 243.608261 854.751953 C 245.585464 848.563354 248.527573 839.03833 250.146286 833.585327 C 251.764999 828.132324 254.467255 820.257324 256.151276 816.085327 C 257.835297 811.91333 260.272125 805.420898 261.566437 801.657715 C 262.860748 797.894287 265.767975 790.919434 268.026947 786.157715 C 270.285919 781.395996 275.082123 770.974976 278.685211 763 C 282.288269 755.025024 286.985291 744.289063 289.123047 739.142334 C 291.260803 733.995605 294.378296 727.470581 296.050812 724.642334 C 297.723328 721.813965 300.794098 716.125 302.874725 712 C 304.955353 707.875 309.665192 699.324951 313.341064 693 C 317.016937 686.675049 322.970917 676.550049 326.572144 670.5 C 330.17337 664.449951 335.005371 656.515991 337.309906 652.868896 C 339.614471 649.221924 344.856995 641.346924 348.959961 635.368896 C 353.062927 629.390991 360.233063 619.099976 364.893555 612.5 C 369.554016 605.900024 375.04129 598.025024 377.087433 595 C 379.133575 591.974976 382.763458 587.185547 385.153839 584.356689 C 387.54422 581.527832 392.875 575.046875 397 569.954712 C 401.125 564.862549 409 555.449585 414.5 549.037109 C 420 542.624634 427.875 533.45874 432 528.668579 C 436.125 523.878418 446.700012 512.830078 455.5 504.116699 C 464.299988 495.40332 477.127899 482.925049 484.00647 476.387207 C 490.88504 469.849243 501.01004 460.639404 506.50647 455.920898 C 512.00293 451.202515 520.549988 443.960571 525.5 439.827759 C 530.450012 435.695068 537.367981 430.105591 540.873291 427.40686 C 544.378662 424.70813 552.703613 418.343384 559.373291 413.263184 C 566.042969 408.182861 582.153076 396.860352 595.173523 388.101929 C 608.193909 379.343506 622.074097 370.225098 626.018372 367.838745 C 629.962646 365.452393 635.734619 362.116577 638.84491 360.425659 C 641.9552 358.734741 650.349976 354.119263 657.5 350.169067 C 664.650024 346.21875 676.349976 340.084961 683.5 336.538452 C 690.650024 332.991943 700.775024 328.079468 706 325.621948 C 711.224976 323.164429 722.700012 318.217285 731.5 314.628418 C 740.299988 311.039551 749.75 307.218018 752.5 306.13623 C 755.25 305.054443 760.650024 303.055908 764.5 301.69519 C 768.349976 300.334473 773.75 298.534424 776.5 297.69519 C 779.25 296.855835 785.325012 294.838135 790 293.211182 C 794.674988 291.584351 801.650024 289.29126 805.5 288.115601 C 809.349976 286.939941 817.450012 284.641968 823.5 283.009155 C 829.549988 281.376343 839.782043 278.660767 846.237854 276.974365 C 852.693726 275.288086 860.248108 273.275024 863.025391 272.500977 C 865.802673 271.726929 871.095642 270.635254 874.787476 270.075073 C 878.47937 269.514893 889.375 267.653076 899 265.937866 C 908.625 264.222534 920.099976 262.201294 924.5 261.446167 C 928.900024 260.69104 940.599976 259.181885 950.5 258.092285 C 960.400024 257.002808 975.924988 255.591797 985 254.956787 C 994.075012 254.321655 1017.25 253.807617 1036.5 253.814453 C 1055.75 253.821289 1077.574951 254.124146 1085 254.487427 C 1092.425049 254.850708 1105.25 255.761353 1113.5 256.510986 C 1121.75 257.260742 1134.574951 258.607422 1142 259.503662 C 1149.425049 260.399902 1158.650024 261.797852 1162.5 262.610474 C 1166.349976 263.422974 1173.324951 264.757446 1178 265.576172 C 1182.675049 266.394775 1188.75 267.494019 1191.5 268.018921 C 1194.25 268.543823 1201.107422 269.621094 1206.73877 270.412964 C 1212.369995 271.204834 1221.14502 272.828125 1226.23877 274.020264 C 1231.332397 275.212402 1238.981812 277.06543 1243.237305 278.138184 C 1247.49292 279.210815 1255.592896 281.387573 1261.237305 282.975342 C 1266.881836 284.56311 1276 287.000122 1281.5 288.390991 C 1287 289.781738 1296.675049 292.476929 1303 294.380249 C 1309.324951 296.283569 1320.349976 299.640137 1327.5 301.839355 C 1334.650024 304.038574 1344.550049 307.244141 1349.5 308.962646 C 1354.449951 310.681274 1362.807129 313.201416 1368.071411 314.562988 C 1373.335693 315.924561 1381.660767 317.697021 1386.571411 318.501831 C 1391.482178 319.306641 1398.954956 319.9729 1403.177612 319.982544 C 1407.400391 319.992188 1414.375366 319.534424 1418.677612 318.96521 C 1422.97998 318.396118 1429.425049 317.237183 1433 316.389771 C 1436.574951 315.542358 1442.650024 313.433472 1446.5 311.703369 C 1450.349976 309.973145 1455.974976 307.004639 1459 305.106689 C 1462.025024 303.208618 1469.675049 296.928345 1476 291.150513 C 1482.324951 285.372681 1492.449951 276.991821 1498.5 272.526367 C 1504.550049 268.060913 1513.550049 262.102051 1518.5 259.284546 C 1523.449951 256.467041 1531.775024 252.265381 1537 249.94751 C 1542.224976 247.629639 1549.199951 244.833618 1552.5 243.734131 C 1555.800049 242.634766 1561.199951 240.632324 1564.5 239.284546 C 1567.800049 237.936646 1573.199951 236.450439 1576.5 235.981812 C 1579.800049 235.513184 1585.650024 234.416626 1589.5 233.545044 C 1593.782959 232.575439 1604.090698 231.715942 1616.056274 231.330811 C 1627.937988 230.948364 1640.299561 231.140015 1647.556274 231.819336 C 1654.125366 232.434204 1664.617798 233.869019 1670.872803 235.00769 C 1677.12793 236.146362 1684.778931 238.144287 1687.875244 239.44751 C 1690.971436 240.75061 1696.338135 242.551147 1699.80127 243.448486 C 1703.264404 244.345825 1708.888306 246.42981 1712.29895 248.07959 C 1715.709473 249.729248 1720.342163 252.07373 1722.593628 253.289429 C 1724.845215 254.505249 1731.992798 258.650024 1738.477295 262.5 C 1745.471558 266.65271 1755.602417 274.003296 1763.383667 280.571167 C 1770.597656 286.660278 1779.975098 295.384277 1784.222534 299.957764 C 1788.469849 304.531372 1795.470215 312.824341 1799.778931 318.386719 C 1804.087646 323.948975 1809.460815 331.650024 1811.71936 335.5 C 1813.977783 339.349976 1818.288086 347.451538 1821.297485 353.503418 C 1824.307007 359.555176 1828.670776 369.905151 1830.994629 376.503418 C 1833.318604 383.101563 1836.503296 394.574951 1838.071777 402 C 1839.640259 409.425049 1841.615845 421.143188 1842.461792 428.040283 C 1843.307861 434.9375 1844 444.750854 1844 449.847656 C 1844 454.94458 1843.55127 462.126465 1843.00293 465.807373 C 1842.454468 469.488281 1841.369019 476.775024 1840.590942 482 C 1839.812744 487.224976 1838.020508 496 1836.608032 501.5 C 1835.195679 507 1832.729004 514.875 1831.126709 519 C 1829.524414 523.125 1826.353638 530.954712 1824.080444 536.399414 C 1821.807251 541.844116 1818.496338 548.819092 1816.722778 551.899414 C 1814.949219 554.979736 1811.285156 560.875 1808.580322 565 C 1805.875488 569.125 1802.725952 573.88623 1801.581177 575.580566 C 1800.436523 577.27478 1796.052734 582.674805 1791.839355 587.580566 C 1787.626099 592.486206 1780.876099 599.697632 1776.839355 603.605957 C 1772.802734 607.51416 1765 614.251343 1759.5 618.577393 C 1754 622.903442 1745.675049 628.859131 1741 631.812012 C 1736.324951 634.765137 1727.775024 639.549561 1722 642.444092 C 1716.224976 645.338745 1706.639282 649.595337 1700.698486 651.903076 C 1694.75769 654.210938 1685.343506 657.22583 1679.778076 658.602905 C 1674.212769 659.979858 1666.248413 661.725708 1662.07959 662.482422 C 1657.910767 663.239258 1650.715942 664.34021 1646.090942 664.929199 C 1641.466064 665.518066 1631.973145 666 1624.995605 666 C 1616.632446 666 1606.691284 665.159546 1595.823853 663.533691 C 1586.526001 662.1427 1574.229248 659.518677 1567.619751 657.515259 C 1561.174438 655.561646 1551.576294 652.16333 1546.290527 649.963379 C 1541.004883 647.76355 1531.4646 643.183838 1525.090088 639.786133 C 1518.715576 636.388428 1509.224976 630.695435 1504 627.13501 C 1498.775024 623.574707 1490.224976 616.96228 1485 612.440918 C 1479.775024 607.919434 1469.199951 597.720459 1461.5 589.776489 C 1453.800049 581.83252 1444.502075 573.221802 1440.837891 570.641357 C 1437.173706 568.061035 1426.373657 561.84082 1416.837891 556.818726 C 1407.189697 551.737549 1395.951782 546.628174 1391.5 545.298706 C 1387.099976 543.984863 1379.449951 542.073242 1374.5 541.050903 C 1369.550049 540.028564 1361.449951 538.686523 1356.5 538.068848 C 1351.550049 537.451172 1343 536.470337 1337.5 535.889282 C 1332 535.308105 1323.675049 534.474854 1319 534.037354 C 1314.324951 533.599854 1303.074951 532.549683 1294 531.703613 C 1284.925049 530.857666 1269.400024 529.665771 1259.5 529.055176 C 1249.599976 528.44458 1232.5 527.513672 1221.5 526.986328 C 1210.5 526.459106 1180.125 526.028687 1154 526.029785 C 1123.512085 526.03125 1097.904419 526.562988 1082.5 527.514526 C 1069.300049 528.329834 1052.650024 529.434326 1045.5 529.96875 C 1038.349976 530.503174 1026.425049 531.648438 1019 532.51355 C 1011.575012 533.378784 999.200012 534.975708 991.5 536.062378 C 983.799988 537.149048 969.400024 539.623047 959.5 541.560059 C 949.599976 543.497192 938.338318 545.683594 934.473999 546.418823 C 930.60968 547.154053 920.48468 549.631226 911.973999 551.923828 C 903.463318 554.216309 891.099976 557.936157 884.5 560.190186 C 877.900024 562.444092 869.799988 565.387329 866.5 566.730591 C 863.200012 568.073853 857.467224 570.242798 853.760498 571.550537 C 850.053711 572.858154 844.653748 575.015625 841.760498 576.344727 C 838.867188 577.673828 833.799988 579.868652 830.5 581.222168 C 827.200012 582.575562 819.001404 586.450806 812.280884 589.83374 C 805.560364 593.216553 793.410339 599.880615 785.280884 604.6427 C 777.151367 609.404785 765.11438 616.907837 758.531982 621.316284 C 751.949524 625.724731 742.949524 631.970459 738.531982 635.195801 C 734.11438 638.421143 726.978516 643.859009 722.6745 647.280029 C 718.370483 650.700928 711.620483 656.163208 707.6745 659.418213 C 703.728516 662.67334 695.549988 669.711182 689.5 675.058105 C 683.450012 680.404907 673.099976 690.355957 666.5 697.171509 C 659.900024 703.987061 650.900024 713.655273 646.5 718.65625 C 642.099976 723.657227 635.496399 731.292969 631.825256 735.624512 C 628.154175 739.956055 621.62915 748.12085 617.325256 753.768433 C 613.021362 759.416016 606.91571 767.741089 603.757141 772.268433 C 600.598511 776.795776 594.809692 785.900024 590.893066 792.5 C 586.97644 799.099976 581.616699 807.875 578.982544 812 C 576.348389 816.125 571.737793 824.224976 568.736694 830 C 565.735657 835.775024 560.883301 845.675049 557.953674 852 C 555.024109 858.324951 551.312317 866.199951 549.705261 869.5 C 548.098267 872.800049 545.971558 877.75 544.97937 880.5 C 543.987122 883.25 542.287231 887.300049 541.201904 889.5 C 540.116516 891.699951 538.32489 896.650024 537.220459 900.5 C 536.116028 904.349976 533.86377 911.550049 532.215332 916.5 C 530.566895 921.449951 527.774414 930 526.009766 935.5 C 524.245117 941 521.48999 951.125 519.887207 958 C 518.284485 964.875 515.829468 976.290405 514.43158 983.367676 C 513.033691 990.444824 510.769653 1003.494873 509.400391 1012.367676 C 508.031097 1021.240479 506.022491 1038.625 504.936829 1051 C 503.753448 1064.488403 502.905731 1083.112305 502.820221 1097.5 C 502.74176 1110.699951 503.226227 1128.25 503.896759 1136.5 C 504.567322 1144.75 505.785553 1156.900024 506.603973 1163.5 C 507.422363 1170.099976 508.974274 1181.44751 510.052612 1188.716553 C 511.130951 1195.985596 513.172485 1207.685547 514.589355 1214.716553 C 516.006226 1221.747437 518.901855 1234.25 521.024109 1242.5 C 523.146362 1250.75 526.648193 1263.125 528.80603 1270 C 530.963806 1276.875 534.643311 1287.900024 536.982666 1294.5 C 539.322021 1301.099976 543.877686 1312.681396 547.106384 1320.23645 C 550.335083 1327.791626 556.372375 1341.066528 560.522583 1349.73645 C 564.672791 1358.406372 571.271484 1370.900024 575.186401 1377.5 C 579.101318 1384.099976 586.119568 1395.125 590.782471 1402 C 595.445435 1408.875 603.615967 1420.349976 608.93927 1427.5 C 614.262573 1434.650024 622.138611 1444.550049 626.44165 1449.5 C 630.74469 1454.449951 640.618103 1465.212158 648.38269 1473.415771 C 656.147217 1481.619507 665.722961 1491.06958 669.662231 1494.415771 C 673.60144 1497.762085 683.717468 1506.349976 692.142334 1513.5 C 700.567261 1520.650024 711.744263 1529.651733 716.980164 1533.503906 C 722.216064 1537.356079 732.575012 1544.554077 740 1549.499512 C 747.424988 1554.444946 758.450012 1561.449707 764.5 1565.065796 C 770.549988 1568.682007 782.025024 1575.056274 790 1579.230835 C 797.974976 1583.405518 810.949341 1589.820557 818.831848 1593.48645 C 826.714417 1597.152466 838.86438 1602.412842 845.831848 1605.176392 C 852.799316 1607.939819 861.650024 1610.864014 865.5 1611.674683 C 870.805969 1612.791748 873.347046 1612.889893 876 1612.0802 C 877.924988 1611.492554 882.650024 1608.333862 886.5 1605.060791 C 890.349976 1601.78772 897.549988 1596.131104 902.5 1592.490723 C 907.450012 1588.85022 915.094299 1583.538086 919.487366 1580.685913 C 923.880432 1577.833618 928.476196 1573.995728 929.700256 1572.157227 C 930.924255 1570.318726 932.88562 1566.268677 934.058838 1563.157227 C 935.231995 1560.045776 937.25116 1552.775024 938.545837 1547 C 939.840515 1541.224976 941.602478 1528.849976 942.461304 1519.5 C 943.32019 1510.150024 944.530212 1496.339111 945.150269 1488.809082 C 945.994873 1478.552734 945.985107 1469.646729 945.11145 1453.309082 C 944.469971 1441.314087 943.28949 1424.074951 942.488098 1415 C 941.686707 1405.925049 940.579773 1394 940.028137 1388.5 C 939.476563 1383 938.571838 1374.675049 938.0177 1370 C 937.463562 1365.324951 935.920898 1354.074951 934.5896 1345 C 933.25824 1335.925049 930.525879 1319.949951 928.517639 1309.5 C 926.509399 1299.050049 923.964233 1287.07605 922.861694 1282.891113 C 921.619019 1278.174438 919.758728 1273.949829 917.967407 1271.776611 C 916.378052 1269.848511 912.591553 1267.09375 909.552917 1265.655029 C 906.514221 1264.216309 900.483032 1260.840454 896.150269 1258.153198 C 891.817444 1255.465942 883.598633 1249.750122 877.88623 1245.451538 C 872.173828 1241.152832 861.803589 1231.895142 854.841309 1224.878784 C 847.879028 1217.862549 839.515625 1208.606934 836.256042 1204.310913 C 832.996399 1200.014893 827.472107 1192 823.979797 1186.5 C 820.487488 1181 815.50946 1172 812.91748 1166.5 C 810.3255 1161 806.763855 1152.756104 805.002747 1148.180054 C 803.241577 1143.604004 800.487549 1135.729004 798.882568 1130.680054 C 797.277588 1125.631104 794.739563 1114.974976 793.242493 1107 C 791.026001 1095.192871 790.518616 1089.62146 790.510254 1077 C 790.503784 1067.203491 791.18158 1056.716431 792.352295 1048.5 C 793.371033 1041.349976 795.468567 1030.550049 797.01355 1024.5 C 798.558533 1018.449951 801.917358 1007.425049 804.4776 1000 C 807.037842 992.574951 812.059937 980.877563 815.637756 974.005737 C 819.215576 967.133911 824.622925 957.82251 827.654053 953.313721 C 830.685181 948.804932 837.785706 939.549072 843.433044 932.744873 C 849.080383 925.940674 857.255798 917.241211 861.600647 913.412598 C 865.945496 909.583984 874.000244 903.048706 879.500183 898.889648 C 885.000061 894.730713 892.650024 889.244629 896.5 886.698486 C 900.349976 884.152344 909.125 879.409424 916 876.158936 C 922.875 872.908325 932.968079 868.580322 938.429077 866.541016 C 943.890076 864.501709 952.440063 861.93042 957.429077 860.827026 C 962.418091 859.723633 971.224976 857.960938 977 856.909912 C 982.775024 855.858887 994.25 854.711426 1002.5 854.360107 C 1013.79187 853.87915 1020.713684 854.133789 1030.5 855.390137 C 1037.650024 856.307861 1049.058105 858.201416 1055.85144 859.597656 C 1063.271851 861.122803 1074.64978 864.552612 1084.35144 868.188477 C 1093.233154 871.517212 1104.545532 876.270264 1109.490112 878.750977 C 1114.434692 881.231689 1124.784668 887.160522 1132.490112 891.92627 C 1140.195557 896.691895 1151.449951 903.387329 1157.5 906.804932 C 1163.550049 910.222412 1176.592529 917.14502 1186.483398 922.188477 C 1196.374268 927.231934 1211.89917 934.466309 1220.983398 938.264893 C 1231.387939 942.615479 1242.310669 946.342285 1250.5 948.335693 C 1262.934814 951.362427 1264.391235 951.5 1284 951.5 C 1303.839722 951.5 1304.934814 951.393066 1318 948.17981 C 1325.425049 946.35376 1334.875 943.780884 1339 942.462402 C 1343.125 941.144043 1351.224976 938.746582 1357 937.134766 C 1362.775024 935.522949 1372.675049 932.316895 1379 930.010254 C 1385.324951 927.703613 1394.204102 924.534424 1398.731445 922.967651 C 1403.258789 921.400879 1411.775879 919.304688 1417.658325 918.30957 C 1425.3302 917.011475 1433.613525 916.5 1446.960083 916.5 C 1462.785767 916.5 1467.130859 916.848389 1476.033325 918.830566 C 1481.790039 920.112549 1490.099976 922.411865 1494.5 923.940186 C 1498.900024 925.46875 1506.324951 928.737793 1511 931.205078 C 1515.675049 933.672119 1523.418335 937.842896 1528.207397 940.473389 C 1532.99646 943.10376 1541.096436 948.773926 1546.207397 953.07373 C 1551.318359 957.373535 1558.240967 964.178467 1561.590942 968.195801 C 1564.94104 972.213135 1570.115967 979.105225 1573.090942 983.511475 C 1576.065918 987.917847 1581.321533 997.36792 1584.77002 1004.511475 C 1588.218506 1011.655273 1592.35376 1022.07605 1593.959595 1027.668945 C 1595.565308 1033.261963 1597.693726 1042.711914 1598.689575 1048.668945 C 1599.836426 1055.530518 1600.5 1064.644775 1600.5 1073.53772 C 1600.5 1084.08667 1599.930542 1090.493896 1598.208862 1099.317749 C 1596.94873 1105.776123 1594.791138 1114.947998 1593.414063 1119.699707 C 1592.037109 1124.451538 1588.434204 1133.550537 1585.407593 1139.919678 C 1582.381104 1146.288818 1576.455933 1156.675049 1572.240723 1163 C 1567.022583 1170.82959 1561.053589 1178.030518 1553.538208 1185.561768 C 1546.958496 1192.15564 1539.066772 1198.867798 1534 1202.179688 C 1529.324951 1205.235596 1520.324951 1210.346924 1514 1213.53833 C 1507.675049 1216.729736 1499.251343 1220.61731 1495.280762 1222.177612 C 1491.310303 1223.737915 1484.785278 1225.711914 1480.780762 1226.564209 C 1476.776367 1227.416504 1467.234863 1228.516846 1459.577637 1229.009277 C 1451.171631 1229.549805 1440.671631 1229.53479 1433.077637 1228.971436 C 1426.159912 1228.458252 1415.1427 1226.911621 1408.594971 1225.534302 C 1402.047241 1224.156982 1392.372314 1221.725586 1387.094971 1220.131348 C 1381.817749 1218.536865 1366.699951 1214.668945 1353.5 1211.535645 C 1340.300049 1208.402466 1322.834961 1204.325195 1314.688721 1202.475098 C 1306.54248 1200.624878 1294.149292 1198.411133 1287.148315 1197.555542 C 1280.147339 1196.699951 1268.362549 1196.00708 1260.959717 1196.015625 C 1252.99939 1196.024902 1241.984131 1196.82666 1234 1197.977783 C 1223.955811 1199.426025 1215.63623 1201.496338 1201.5 1206.064941 C 1191.050049 1209.442261 1180.137207 1213.357422 1177.249512 1214.765259 C 1174.361694 1216.173096 1169.636719 1219.802002 1166.749512 1222.829224 C 1163.862305 1225.856445 1158.574951 1231.20874 1155 1234.723145 C 1151.425049 1238.237549 1144.049683 1244.760498 1138.610474 1249.218628 C 1129.367065 1256.794678 1128.478027 1257.852661 1125.001709 1265.412109 C 1122.956055 1269.860474 1118.974487 1279.640381 1116.153687 1287.145264 C 1113.333008 1294.650146 1108.301147 1308.825195 1104.97168 1318.645264 C 1101.642334 1328.465332 1097.861084 1340.775024 1096.569092 1346 C 1095.276978 1351.224976 1093.042725 1360.449951 1091.603882 1366.5 C 1090.165161 1372.550049 1087.888062 1384.025024 1086.543823 1392 C 1085.199463 1399.974976 1083.210327 1413.25 1082.123535 1421.5 C 1081.036621 1429.75 1079.446899 1443.025024 1078.590698 1451 C 1077.734497 1458.974976 1076.634155 1472.25 1076.145386 1480.5 C 1075.656738 1488.75 1075.427734 1500 1075.636353 1505.5 C 1075.845093 1511 1076.506348 1520.224976 1077.105835 1526 C 1077.705322 1531.775024 1078.808716 1539.425049 1079.557861 1543 C 1080.307007 1546.574951 1082.292725 1553.775024 1083.970581 1559 C 1085.648315 1564.224976 1088.274048 1570.300049 1089.80542 1572.5 C 1091.747803 1575.290527 1096.327271 1578.81665 1104.950684 1584.161621 C 1111.749268 1588.375488 1121.695923 1595.048462 1127.054443 1598.990479 C 1132.509521 1603.00354 1140.91272 1610.600952 1146.14856 1616.253784 C 1151.29187 1621.806641 1157.785034 1629.758545 1160.577881 1633.924927 C 1163.370728 1638.091187 1167.943848 1644.875 1170.740356 1649 C 1173.536865 1653.125 1177.940308 1661.224976 1180.525513 1667 C 1183.11084 1672.775024 1186.474609 1681.099976 1188.000488 1685.5 C 1189.526489 1689.900024 1191.998047 1698.449951 1193.493042 1704.5 C 1194.987915 1710.550049 1196.726074 1720 1197.355591 1725.5 C 1197.984985 1731 1198.5 1742.25 1198.5 1750.5 C 1198.5 1758.75 1197.915649 1768.875 1197.201416 1773 C 1196.487183 1777.125 1194.851807 1785.043335 1193.567383 1790.596313 C 1192.282837 1796.149292 1189.405029 1805.246338 1187.172119 1810.812012 C 1184.939087 1816.377686 1180.401855 1826.234253 1177.089111 1832.715698 C 1173.776489 1839.197021 1167.350342 1849.449951 1162.80896 1855.5 C 1158.267578 1861.550049 1150.490234 1870.71875 1145.525879 1875.875122 C 1140.561646 1881.031372 1133.349976 1887.81665 1129.5 1890.953491 C 1125.650024 1894.090332 1119.125 1898.902344 1115 1901.646973 C 1110.875 1904.391602 1101.868896 1909.583252 1094.98645 1913.184082 C 1088.104004 1916.784912 1077.303955 1921.789673 1070.98645 1924.305908 C 1064.075317 1927.058594 1055.118408 1929.705566 1048.5 1930.951172 C 1042.449951 1932.089844 1032.099976 1933.687988 1025.5 1934.502686 C 1018.900024 1935.317505 1010.575012 1935.942383 1007 1935.891602 Z"/>
</svg>
